HIERARCHY
ROOT Hips
{
  OFFSET 0 0 0
  CHANNELS 6 Xposition Yposition Zposition Zrotation Yrotation Xrotation
  JOINT LeftThigh
  {
    OFFSET 8.409438 0 -5.917753
    CHANNELS 3 Zrotation Yrotation Xrotation
    JOINT LeftLeg
    {
      OFFSET 0 0 -42.358652
      CHANNELS 3 Zrotation Yrotation Xrotation
      JOINT LeftFoot
      {
        OFFSET 0 0 -39.357303
        CHANNELS 3 Zrotation Yrotation Xrotation
      }
    }
  }
  JOINT RightThigh
  {
    OFFSET -8.409438 0 -5.917753
    CHANNELS 3 Zrotation Yrotation Xrotation
    JOINT RightLeg
    {
      OFFSET 0 0 -42.358652
      CHANNELS 3 Zrotation Yrotation Xrotation
      JOINT RightFoot
      {
        OFFSET 0 0 -39.357303
        CHANNELS 3 Zrotation Yrotation Xrotation
      }
    }
  }
  JOINT SpineLow
  {
    OFFSET 0 0 4.719101
    CHANNELS 3 Zrotation Yrotation Xrotation
    JOINT SpineMid
    {
      OFFSET 0 0 12.899191
      CHANNELS 3 Zrotation Yrotation Xrotation
      JOINT Chest
      {
        OFFSET 0 0 12.899191
        CHANNELS 3 Zrotation Yrotation Xrotation
        JOINT LeftShoulder
        {
          OFFSET 7.550562 1.41573 9.438202
          CHANNELS 3 Zrotation Yrotation Xrotation
          JOINT LeftArm
          {
            OFFSET 9.155056 0 4.247191
            CHANNELS 3 Zrotation Yrotation Xrotation
            JOINT LeftForearm
            {
              OFFSET 0 0 25.771955
              CHANNELS 3 Zrotation Yrotation Xrotation
              JOINT LeftHand
              {
                OFFSET 0 0 25.197169
                CHANNELS 3 Zrotation Yrotation Xrotation
              }
            }
          }
        }
        JOINT RightShoulder
        {
          OFFSET -7.550562 1.41573 9.438202
          CHANNELS 3 Zrotation Yrotation Xrotation
          JOINT RightArm
          {
            OFFSET -9.155056 0 4.247191
            CHANNELS 3 Zrotation Yrotation Xrotation
            JOINT RightForearm
            {
              OFFSET 0 0 -25.771955
              CHANNELS 3 Zrotation Yrotation Xrotation
              JOINT RightHand
              {
                OFFSET 0 0 -25.197169
                CHANNELS 3 Zrotation Yrotation Xrotation
              }
            }
          }
        }
        JOINT Neck
        {
          OFFSET 0 0 15.101124
          CHANNELS 3 Zrotation Yrotation Xrotation
          JOINT Head
          {
            OFFSET 0 0 11.325843
            CHANNELS 3 Zrotation Yrotation Xrotation
            End Site
            {
              OFFSET 0 0 14.157303
            }
          }
        }
      }
    }
  }
}
MOTION
Frames: 7
Frame Time: 0.0
0.0  89.887642  0.0  2.289115  29.529176  -89.557724  6.353499  -48.950799  4.014349  -0.328129  51.187391  45.893916  7.905341  1.55039  1.092295  -27.039588  -6.713727  -45.893506  16.516753  16.425501  76.527763  -6.90724  2.207318  0.413631  -2.694805  0.208696  0.812615  -7.358233  0.660022  2.194865  -7.358232  0.660022  2.194865  -3.53779  22.057494  6.392963  136.728576  42.620898  -139.391883  -26.798982  -1.70598  67.025577  79.354735  7.770593  0.092566  1.395479  0.485879  14.756828  13.892985  55.304516  -27.032736  -12.780876  -8.42664  -80.828356  75.252598  5.460248  -22.807328  -9.780511  0.237282  2.394915  -7.336436  0.139674  1.800528  
0.0  89.887642  0.0  2.005447  29.276304  -89.89688  8.482168  -49.164381  2.690235  -1.135662  51.036959  46.478246  7.838602  1.549235  1.19684  -26.029564  -5.728084  -45.784377  16.055962  15.369339  76.434865  -6.771323  2.018225  0.474497  -2.662507  0.217495  0.835841  -7.269417  0.685525  2.257657  -7.269418  0.685525  2.257657  -3.913906  21.73787  6.261583  136.653471  42.428622  -139.443553  -27.141784  -1.670166  66.948039  79.510027  7.797883  -0.053182  0.999085  0.216137  14.51493  15.045992  54.953133  -26.138765  -13.014011  -8.012503  -80.471956  75.486773  5.436987  -22.877886  -9.784904  0.070958  2.282768  -7.339064  0.016669  1.713734  
0.0  89.887642  0.0  1.712036  28.976743  -90.085562  10.990841  -49.361099  1.107693  -2.477364  50.899466  46.751794  7.753135  1.581127  1.209894  -25.354429  -4.944385  -45.852093  15.428665  14.560073  76.315678  -6.623294  1.838372  0.53161  -2.642155  0.198897  0.851174  -7.21424  0.635748  2.301761  -7.214239  0.635748  2.301761  -4.185936  21.647288  6.102554  136.740219  42.353999  -139.497076  -27.379879  -1.648901  66.908613  79.404205  7.716523  -0.126595  1.079883  0.184668  14.371149  15.46972  54.68529  -25.783409  -13.226088  -7.86148  -80.070456  75.573569  5.34834  -22.89472  -9.670237  -0.013615  2.126162  -7.252735  -0.043873  1.594879  
0.0  89.887642  0.0  1.371401  28.73778  -90.174732  12.910391  -49.471131  -0.250747  -3.613726  50.798625  46.939118  7.779677  1.624321  1.171948  -25.128683  -4.576722  -45.998664  14.77812  14.080272  76.164846  -6.64078  1.719976  0.599857  -2.651161  0.13706  0.82711  -7.24113  0.464658  2.242722  -7.241129  0.464658  2.242721  -4.312454  21.872731  6.166714  136.883185  42.338338  -139.493611  -27.603126  -1.758156  66.895473  79.305442  7.646727  -0.034995  1.196525  0.298977  14.457662  15.343084  54.685127  -25.881371  -13.246846  -8.095531  -79.686938  75.641261  5.171959  -22.724025  -9.487179  0.07114  2.010971  -7.115709  0.02214  1.509763  
0.0  89.887642  0.0  1.045097  28.572592  -90.254483  12.980514  -49.371598  -0.471845  -3.997059  50.793531  46.898176  7.996033  1.672935  1.131488  -25.384383  -4.658885  -46.088283  14.235835  14.049371  75.953195  -6.678947  1.678597  0.669161  -2.67179  0.076201  0.794968  -7.299703  0.295709  2.161521  -7.299703  0.295709  2.161521  -4.262635  22.040102  6.269509  136.765096  42.287217  -139.600544  -27.779801  -1.832479  66.905114  79.240298  7.587341  0.034643  1.405681  0.376985  14.708871  15.368274  54.901887  -26.034054  -13.352538  -8.371024  -79.251135  75.563637  4.978625  -22.487318  -9.264943  0.174789  1.971059  -6.949351  0.101235  1.481346  
0.0  89.887642  0.0  0.758361  28.461631  -90.390799  11.116057  -49.193862  0.5618  -2.924173  50.767433  47.17274  8.21147  1.688978  1.085883  -26.099226  -5.162453  -45.977285  14.064724  14.279303  75.669971  -6.715115  1.694483  0.694688  -2.732812  0.023435  0.75718  -7.468304  0.14943  2.063996  -7.468304  0.14943  2.063995  -3.975773  22.162255  6.358795  136.867288  42.114602  -139.694358  -27.748824  -1.677995  66.994029  79.267808  7.617185  0.109213  1.744777  0.288253  15.06729  15.948187  55.387357  -25.777178  -13.53754  -8.619478  -78.862577  75.509582  4.834036  -22.087251  -8.955032  0.305552  1.987851  -6.717336  0.200086  1.495744  
0.0  89.887642  0.0  0.495738  28.279059  -90.554824  8.53437  -49.006874  2.195025  -0.984389  50.654031  47.719126  8.316735  1.723504  1.068108  -27.041874  -6.013352  -45.728792  14.285463  14.701538  75.322736  -6.672603  1.711044  0.693199  -2.743426  -0.03309  0.735043  -7.49909  -0.007007  2.009944  -7.49909  -0.007007  2.009944  -3.920091  22.207533  6.340409  136.850348  41.920031  -139.740374  -27.80733  -1.664758  66.963334  79.247248  7.613316  0.268698  1.869187  0.407043  15.251762  16.145391  55.548488  -25.730535  -13.689366  -8.741491  -78.55164  75.461247  4.719533  -21.998662  -8.797257  0.407303  1.989111  -6.599323  0.276913  1.498059  
